<svg width="280" height="155" viewBox="0 0 280 155" fill="none" xmlns="http://www.w3.org/2000/svg">
<g clip-path="url(#clip0_4_96)">
<path d="M50.5443 14.736C59.3986 5.43379 71.1437 0 84.9419 0C111.822 0 129.644 19.6262 133.054 49.0275C134.16 58.5755 134.149 72.0368 134.138 87.6284C134.137 89.2273 134.136 90.8489 134.136 92.4908V150.9H97.1701V107.699C97.1701 107.699 97.0948 70.7246 96.8689 63.8144C95.8768 33.7182 78.0597 14.8073 50.5405 14.7869C42.2378 23.5589 37.789 34.2842 37.133 50.6834C37.0428 52.9707 37.0655 61.0781 37.0954 71.7635C37.1109 77.2998 37.1283 83.5284 37.133 89.9978C37.1603 118.157 37.133 150.906 37.133 150.906H0.167365V84.42C0.167365 82.1419 0.125848 79.8444 0.0841699 77.5378C0.000326125 72.898 -0.0841699 68.2225 0.167365 63.5928C0.585017 55.875 1.92013 48.2879 5.5215 41.2397C13.765 25.0928 30.6559 14.6964 48.663 14.6964C49.2921 14.6964 49.9216 14.7097 50.5443 14.736Z" fill="white"/>
<path d="M279.833 90.8899C280.084 86.2603 280 81.5843 279.916 76.945C279.874 74.6384 279.833 72.3409 279.833 70.0628V3.57661H242.867C242.867 3.57661 242.84 36.326 242.867 64.4845C242.872 70.9539 242.889 77.182 242.904 82.7183C242.934 93.4042 242.957 101.512 242.867 103.799C242.211 120.199 237.762 130.924 229.46 139.696C201.941 139.675 184.124 120.764 183.132 90.6684C182.906 83.7581 182.81 66.6101 182.81 46.7494V3.5484L145.872 3.58292V61.992C145.872 63.6339 145.87 65.255 145.869 66.8544C145.858 82.446 145.848 95.9068 146.954 105.455C150.356 134.857 168.178 154.483 195.059 154.483C208.857 154.483 220.602 149.049 229.457 139.747C230.079 139.773 230.708 139.786 231.337 139.786C249.344 139.786 266.235 129.39 274.479 113.243C278.08 106.194 279.415 98.6078 279.833 90.8899Z" fill="white"/>
</g>
<defs>
<clipPath id="clip0_4_96">
<rect width="280" height="154.483" fill="white"/>
</clipPath>
</defs>
</svg>
