<svg width="16" height="17" viewBox="0 0 16 17" fill="none" xmlns="http://www.w3.org/2000/svg">
<g clip-path="url(#clip0_3019_19150)">
<path d="M2 3.16667C2 2.98986 2.07024 2.82029 2.19526 2.69526C2.32029 2.57024 2.48986 2.5 2.66667 2.5H5.33333C5.51014 2.5 5.67971 2.57024 5.80474 2.69526C5.92976 2.82029 6 2.98986 6 3.16667V5.83333C6 6.01014 5.92976 6.17971 5.80474 6.30474C5.67971 6.42976 5.51014 6.5 5.33333 6.5H2.66667C2.48986 6.5 2.32029 6.42976 2.19526 6.30474C2.07024 6.17971 2 6.01014 2 5.83333V3.16667Z" stroke="#00A3FF" stroke-width="1.33" stroke-linecap="round" stroke-linejoin="round"/>
<path d="M10 11.1667C10 10.9899 10.0702 10.8203 10.1953 10.6953C10.3203 10.5702 10.4899 10.5 10.6667 10.5H13.3333C13.5101 10.5 13.6797 10.5702 13.8047 10.6953C13.9298 10.8203 14 10.9899 14 11.1667V13.8333C14 14.0101 13.9298 14.1797 13.8047 14.3047C13.6797 14.4298 13.5101 14.5 13.3333 14.5H10.6667C10.4899 14.5 10.3203 14.4298 10.1953 14.3047C10.0702 14.1797 10 14.0101 10 13.8333V11.1667Z" stroke="#00A3FF" stroke-width="1.33" stroke-linecap="round" stroke-linejoin="round"/>
<path d="M13.9993 7.83333V5.83333C13.9993 5.47971 13.8589 5.14057 13.6088 4.89052C13.3588 4.64048 13.0196 4.5 12.666 4.5H8.66602M8.66602 4.5L10.666 6.5M8.66602 4.5L10.666 2.5" stroke="#00A3FF" stroke-width="1.33" stroke-linecap="round" stroke-linejoin="round"/>
<path d="M2 9.1665V11.1665C2 11.5201 2.14048 11.8593 2.39052 12.1093C2.64057 12.3594 2.97971 12.4998 3.33333 12.4998H7.33333M7.33333 12.4998L5.33333 10.4998M7.33333 12.4998L5.33333 14.4998" stroke="#00A3FF" stroke-width="1.33" stroke-linecap="round" stroke-linejoin="round"/>
</g>
<defs>
<clipPath id="clip0_3019_19150">
<rect width="16" height="16" fill="white" transform="translate(0 0.5)"/>
</clipPath>
</defs>
</svg>
