<svg width="16" height="17" viewBox="0 0 16 17" fill="none" xmlns="http://www.w3.org/2000/svg">
<g clip-path="url(#clip0_1127_80828)">
<path d="M11.3333 5.83366V3.83366C11.3333 3.65685 11.2631 3.48728 11.1381 3.36225C11.0131 3.23723 10.8435 3.16699 10.6667 3.16699H4.00001C3.64638 3.16699 3.30724 3.30747 3.0572 3.55752C2.80715 3.80756 2.66667 4.1467 2.66667 4.50033M2.66667 4.50033C2.66667 4.85395 2.80715 5.19309 3.0572 5.44313C3.30724 5.69318 3.64638 5.83366 4.00001 5.83366H12C12.1768 5.83366 12.3464 5.9039 12.4714 6.02892C12.5964 6.15395 12.6667 6.32351 12.6667 6.50033V8.50033M2.66667 4.50033V12.5003C2.66667 12.8539 2.80715 13.1931 3.0572 13.4431C3.30724 13.6932 3.64638 13.8337 4.00001 13.8337H12C12.1768 13.8337 12.3464 13.7634 12.4714 13.6384C12.5964 13.5134 12.6667 13.3438 12.6667 13.167V11.167" stroke="#989898" stroke-width="1.33" stroke-linecap="round" stroke-linejoin="round"/>
<path d="M13.3333 8.5V11.1667H10.6667C10.313 11.1667 9.9739 11.0262 9.72385 10.7761C9.4738 10.5261 9.33333 10.187 9.33333 9.83333C9.33333 9.47971 9.4738 9.14057 9.72385 8.89052C9.9739 8.64048 10.313 8.5 10.6667 8.5H13.3333Z" stroke="#989898" stroke-width="1.33" stroke-linecap="round" stroke-linejoin="round"/>
</g>
<defs>
<clipPath id="clip0_1127_80828">
<rect width="16" height="16" fill="white" transform="translate(0 0.5)"/>
</clipPath>
</defs>
</svg>
