<svg width="16" height="17" viewBox="0 0 16 17" fill="none" xmlns="http://www.w3.org/2000/svg">
<g clip-path="url(#clip0_1127_60138)">
<path d="M0 0.5H16V16.5H0V0.5Z" fill="white"/>
<path d="M9.33334 2.5V5.16667C9.33334 5.34348 9.40358 5.51305 9.52861 5.63807C9.65363 5.7631 9.8232 5.83333 10 5.83333H12.6667" stroke="#989898" stroke-width="1.33" stroke-linecap="round" stroke-linejoin="round"/>
<path d="M11.3333 14.5H4.66668C4.31305 14.5 3.97392 14.3595 3.72387 14.1095C3.47382 13.8594 3.33334 13.5203 3.33334 13.1667V3.83333C3.33334 3.47971 3.47382 3.14057 3.72387 2.89052C3.97392 2.64048 4.31305 2.5 4.66668 2.5H9.33334L12.6667 5.83333V13.1667C12.6667 13.5203 12.5262 13.8594 12.2762 14.1095C12.0261 14.3595 11.687 14.5 11.3333 14.5Z" stroke="#989898" stroke-width="1.33" stroke-linecap="round" stroke-linejoin="round"/>
<path d="M9.33332 7.83301H7.66666C7.40144 7.83301 7.14709 7.93836 6.95955 8.1259C6.77201 8.31344 6.66666 8.56779 6.66666 8.83301C6.66666 9.09822 6.77201 9.35258 6.95955 9.54011C7.14709 9.72765 7.40144 9.83301 7.66666 9.83301H8.33332C8.59854 9.83301 8.85289 9.93836 9.04043 10.1259C9.22797 10.3134 9.33332 10.5678 9.33332 10.833C9.33332 11.0982 9.22797 11.3526 9.04043 11.5401C8.85289 11.7276 8.59854 11.833 8.33332 11.833H6.66666" stroke="#989898" stroke-width="1.33" stroke-linecap="round" stroke-linejoin="round"/>
<path d="M8 11.8337V12.5003M8 7.16699V7.83366" stroke="#989898" stroke-width="1.33" stroke-linecap="round" stroke-linejoin="round"/>
</g>
<defs>
<clipPath id="clip0_1127_60138">
<rect width="16" height="16" fill="white" transform="translate(0 0.5)"/>
</clipPath>
</defs>
</svg>
