<svg width="17" height="17" viewBox="0 0 17 17" fill="none" xmlns="http://www.w3.org/2000/svg">
<g clip-path="url(#clip0_1127_81425)">
<path d="M9.58936 2.5V5.16667C9.58936 5.34348 9.65959 5.51305 9.78462 5.63807C9.90964 5.7631 10.0792 5.83333 10.256 5.83333H12.9227" stroke="#00A3FF" stroke-width="1.33" stroke-linecap="round" stroke-linejoin="round"/>
<path d="M11.5894 14.5H4.92269C4.56907 14.5 4.22993 14.3595 3.97988 14.1095C3.72983 13.8594 3.58936 13.5203 3.58936 13.1667V3.83333C3.58936 3.47971 3.72983 3.14057 3.97988 2.89052C4.22993 2.64048 4.56907 2.5 4.92269 2.5H9.58936L12.9227 5.83333V13.1667C12.9227 13.5203 12.7822 13.8594 12.5322 14.1095C12.2821 14.3595 11.943 14.5 11.5894 14.5Z" stroke="#00A3FF" stroke-width="1.33" stroke-linecap="round" stroke-linejoin="round"/>
<path d="M9.58933 7.83301H7.92267C7.65745 7.83301 7.4031 7.93836 7.21556 8.1259C7.02803 8.31344 6.92267 8.56779 6.92267 8.83301C6.92267 9.09822 7.02803 9.35258 7.21556 9.54011C7.4031 9.72765 7.65745 9.83301 7.92267 9.83301H8.58934C8.85455 9.83301 9.10891 9.93836 9.29644 10.1259C9.48398 10.3134 9.58933 10.5678 9.58933 10.833C9.58933 11.0982 9.48398 11.3526 9.29644 11.5401C9.10891 11.7276 8.85455 11.833 8.58934 11.833H6.92267" stroke="#00A3FF" stroke-width="1.33" stroke-linecap="round" stroke-linejoin="round"/>
<path d="M8.25601 11.8337V12.5003M8.25601 7.16699V7.83366" stroke="#00A3FF" stroke-width="1.33" stroke-linecap="round" stroke-linejoin="round"/>
</g>
<defs>
<clipPath id="clip0_1127_81425">
<rect width="16" height="16" fill="white" transform="translate(0.256012 0.5)"/>
</clipPath>
</defs>
</svg>
