<svg width="16" height="16" viewBox="0 0 16 16" fill="none" xmlns="http://www.w3.org/2000/svg">
<g clip-path="url(#clip0_3013_25187)">
<path d="M2.66602 3.99984C2.66602 3.64622 2.80649 3.30708 3.05654 3.05703C3.30659 2.80698 3.64573 2.6665 3.99935 2.6665H5.33268C5.6863 2.6665 6.02544 2.80698 6.27549 3.05703C6.52554 3.30708 6.66602 3.64622 6.66602 3.99984V11.9998C6.66602 12.3535 6.52554 12.6926 6.27549 12.9426C6.02544 13.1927 5.6863 13.3332 5.33268 13.3332H3.99935C3.64573 13.3332 3.30659 13.1927 3.05654 12.9426C2.80649 12.6926 2.66602 12.3535 2.66602 11.9998V3.99984Z" stroke="currentColor" stroke-width="1.5" stroke-linecap="round" stroke-linejoin="round"/>
<path d="M9.33398 3.99984C9.33398 3.64622 9.47446 3.30708 9.72451 3.05703C9.97456 2.80698 10.3137 2.6665 10.6673 2.6665H12.0007C12.3543 2.6665 12.6934 2.80698 12.9435 3.05703C13.1935 3.30708 13.334 3.64622 13.334 3.99984V7.99984C13.334 8.35346 13.1935 8.6926 12.9435 8.94265C12.6934 9.19269 12.3543 9.33317 12.0007 9.33317H10.6673C10.3137 9.33317 9.97456 9.19269 9.72451 8.94265C9.47446 8.6926 9.33398 8.35346 9.33398 7.99984V3.99984Z" stroke="currentColor" stroke-width="1.5" stroke-linecap="round" stroke-linejoin="round"/>
</g>
<defs>
<clipPath id="clip0_3013_25187">
<rect width="16" height="16" fill="white"/>
</clipPath>
</defs>
</svg>