<svg width="16" height="17" viewBox="0 0 16 17" fill="none" xmlns="http://www.w3.org/2000/svg">
<g clip-path="url(#clip0_1127_52624)">
<path d="M2.66667 3.83366C2.66667 3.65685 2.73691 3.48728 2.86193 3.36225C2.98695 3.23723 3.15652 3.16699 3.33333 3.16699H6C6.17681 3.16699 6.34638 3.23723 6.47141 3.36225C6.59643 3.48728 6.66667 3.65685 6.66667 3.83366V6.50033C6.66667 6.67714 6.59643 6.84671 6.47141 6.97173C6.34638 7.09675 6.17681 7.16699 6 7.16699H3.33333C3.15652 7.16699 2.98695 7.09675 2.86193 6.97173C2.73691 6.84671 2.66667 6.67714 2.66667 6.50033V3.83366Z" stroke="#00A3FF" stroke-width="1.33" stroke-linecap="round" stroke-linejoin="round"/>
<path d="M9.33333 3.83366C9.33333 3.65685 9.40357 3.48728 9.52859 3.36225C9.65362 3.23723 9.82319 3.16699 10 3.16699H12.6667C12.8435 3.16699 13.013 3.23723 13.1381 3.36225C13.2631 3.48728 13.3333 3.65685 13.3333 3.83366V6.50033C13.3333 6.67714 13.2631 6.84671 13.1381 6.97173C13.013 7.09675 12.8435 7.16699 12.6667 7.16699H10C9.82319 7.16699 9.65362 7.09675 9.52859 6.97173C9.40357 6.84671 9.33333 6.67714 9.33333 6.50033V3.83366Z" stroke="#00A3FF" stroke-width="1.33" stroke-linecap="round" stroke-linejoin="round"/>
<path d="M2.66667 10.4997C2.66667 10.3229 2.73691 10.1533 2.86193 10.0283C2.98695 9.90325 3.15652 9.83301 3.33333 9.83301H6C6.17681 9.83301 6.34638 9.90325 6.47141 10.0283C6.59643 10.1533 6.66667 10.3229 6.66667 10.4997V13.1663C6.66667 13.3432 6.59643 13.5127 6.47141 13.6377C6.34638 13.7628 6.17681 13.833 6 13.833H3.33333C3.15652 13.833 2.98695 13.7628 2.86193 13.6377C2.73691 13.5127 2.66667 13.3432 2.66667 13.1663V10.4997Z" stroke="#00A3FF" stroke-width="1.33" stroke-linecap="round" stroke-linejoin="round"/>
<path d="M9.33333 10.4997C9.33333 10.3229 9.40357 10.1533 9.52859 10.0283C9.65362 9.90325 9.82319 9.83301 10 9.83301H12.6667C12.8435 9.83301 13.013 9.90325 13.1381 10.0283C13.2631 10.1533 13.3333 10.3229 13.3333 10.4997V13.1663C13.3333 13.3432 13.2631 13.5127 13.1381 13.6377C13.013 13.7628 12.8435 13.833 12.6667 13.833H10C9.82319 13.833 9.65362 13.7628 9.52859 13.6377C9.40357 13.5127 9.33333 13.3432 9.33333 13.1663V10.4997Z" stroke="#00A3FF" stroke-width="1.33" stroke-linecap="round" stroke-linejoin="round"/>
</g>
<defs>
<clipPath id="clip0_1127_52624">
<rect width="16" height="16" fill="white" transform="translate(0 0.5)"/>
</clipPath>
</defs>
</svg>
