<svg width="16" height="17" viewBox="0 0 16 17" fill="none" xmlns="http://www.w3.org/2000/svg">
<g clip-path="url(#clip0_1451_36344)">
<path d="M2.66602 4.50033C2.66602 4.1467 2.80649 3.80756 3.05654 3.55752C3.30659 3.30747 3.64573 3.16699 3.99935 3.16699H11.9993C12.353 3.16699 12.6921 3.30747 12.9422 3.55752C13.1922 3.80756 13.3327 4.1467 13.3327 4.50033V5.83366C13.3327 6.18728 13.1922 6.52642 12.9422 6.77647C12.6921 7.02652 12.353 7.16699 11.9993 7.16699H3.99935C3.64573 7.16699 3.30659 7.02652 3.05654 6.77647C2.80649 6.52642 2.66602 6.18728 2.66602 5.83366V4.50033Z" stroke="#989898" stroke-width="1.5" stroke-linecap="round" stroke-linejoin="round"/>
<path d="M2.66602 11.1663C2.66602 10.8127 2.80649 10.4736 3.05654 10.2235C3.30659 9.97348 3.64573 9.83301 3.99935 9.83301H11.9993C12.353 9.83301 12.6921 9.97348 12.9422 10.2235C13.1922 10.4736 13.3327 10.8127 13.3327 11.1663V12.4997C13.3327 12.8533 13.1922 13.1924 12.9422 13.4425C12.6921 13.6925 12.353 13.833 11.9993 13.833H3.99935C3.64573 13.833 3.30659 13.6925 3.05654 13.4425C2.80649 13.1924 2.66602 12.8533 2.66602 12.4997V11.1663Z" stroke="#989898" stroke-width="1.5" stroke-linecap="round" stroke-linejoin="round"/>
</g>
<defs>
<clipPath id="clip0_1451_36344">
<rect width="16" height="16" fill="white" transform="translate(0 0.5)"/>
</clipPath>
</defs>
</svg>
