<svg width="16" height="16" viewBox="0 0 16 16" fill="none" xmlns="http://www.w3.org/2000/svg">
<g clip-path="url(#clip0_3015_53576)">
<path d="M2.66602 4.6665H13.3327" stroke="#FF4D4F" stroke-width="1.33" stroke-linecap="round" stroke-linejoin="round"/>
<path d="M6.66602 7.3335V11.3335" stroke="#FF4D4F" stroke-width="1.33" stroke-linecap="round" stroke-linejoin="round"/>
<path d="M9.33398 7.3335V11.3335" stroke="#FF4D4F" stroke-width="1.33" stroke-linecap="round" stroke-linejoin="round"/>
<path d="M3.33398 4.6665L4.00065 12.6665C4.00065 13.0201 4.14113 13.3593 4.39118 13.6093C4.64122 13.8594 4.98036 13.9998 5.33398 13.9998H10.6673C11.0209 13.9998 11.3601 13.8594 11.6101 13.6093C11.8602 13.3593 12.0007 13.0201 12.0007 12.6665L12.6673 4.6665" stroke="#FF4D4F" stroke-width="1.33" stroke-linecap="round" stroke-linejoin="round"/>
<path d="M6 4.66667V2.66667C6 2.48986 6.07024 2.32029 6.19526 2.19526C6.32029 2.07024 6.48986 2 6.66667 2H9.33333C9.51014 2 9.67971 2.07024 9.80474 2.19526C9.92976 2.32029 10 2.48986 10 2.66667V4.66667" stroke="#FF4D4F" stroke-width="1.33" stroke-linecap="round" stroke-linejoin="round"/>
</g>
<defs>
<clipPath id="clip0_3015_53576">
<rect width="16" height="16" fill="white"/>
</clipPath>
</defs>
</svg>
