<svg width="17" height="17" viewBox="0 0 17 17" fill="none" xmlns="http://www.w3.org/2000/svg">
<g clip-path="url(#clip0_1123_79678)">
<path d="M6.92267 6.50033C6.92267 6.85395 7.06314 7.19309 7.31319 7.44313C7.56324 7.69318 7.90238 7.83366 8.256 7.83366C8.60962 7.83366 8.94876 7.69318 9.19881 7.44313C9.44886 7.19309 9.58933 6.85395 9.58933 6.50033C9.58933 6.1467 9.44886 5.80756 9.19881 5.55752C8.94876 5.30747 8.60962 5.16699 8.256 5.16699C7.90238 5.16699 7.56324 5.30747 7.31319 5.55752C7.06314 5.80756 6.92267 6.1467 6.92267 6.50033Z" stroke="#00A3FF" stroke-width="1.33" stroke-linecap="round" stroke-linejoin="round"/>
<path d="M2.92267 5.83366V4.50033C2.92267 4.1467 3.06314 3.80756 3.31319 3.55752C3.56324 3.30747 3.90238 3.16699 4.256 3.16699H5.58934" stroke="#00A3FF" stroke-width="1.33" stroke-linecap="round" stroke-linejoin="round"/>
<path d="M2.92267 11.167V12.5003C2.92267 12.8539 3.06314 13.1931 3.31319 13.4431C3.56324 13.6932 3.90238 13.8337 4.256 13.8337H5.58934" stroke="#00A3FF" stroke-width="1.33" stroke-linecap="round" stroke-linejoin="round"/>
<path d="M10.9227 3.16699H12.256C12.6096 3.16699 12.9488 3.30747 13.1988 3.55752C13.4489 3.80756 13.5893 4.1467 13.5893 4.50033V5.83366" stroke="#00A3FF" stroke-width="1.33" stroke-linecap="round" stroke-linejoin="round"/>
<path d="M10.9227 13.8337H12.256C12.6096 13.8337 12.9488 13.6932 13.1988 13.4431C13.4489 13.1931 13.5893 12.8539 13.5893 12.5003V11.167" stroke="#00A3FF" stroke-width="1.33" stroke-linecap="round" stroke-linejoin="round"/>
<path d="M5.58936 11.1663C5.58936 10.8127 5.72983 10.4736 5.97988 10.2235C6.22993 9.97348 6.56907 9.83301 6.92269 9.83301H9.58936C9.94298 9.83301 10.2821 9.97348 10.5322 10.2235C10.7822 10.4736 10.9227 10.8127 10.9227 11.1663" stroke="#00A3FF" stroke-width="1.33" stroke-linecap="round" stroke-linejoin="round"/>
</g>
<defs>
<clipPath id="clip0_1123_79678">
<rect width="16" height="16" fill="white" transform="translate(0.256012 0.5)"/>
</clipPath>
</defs>
</svg>
