<svg width="14" height="15" viewBox="0 0 14 15" fill="none" xmlns="http://www.w3.org/2000/svg">
<g clip-path="url(#clip0_1017_24297)">
<path d="M4.66699 4.58333C4.66699 5.20217 4.91282 5.79566 5.35041 6.23325C5.78799 6.67083 6.38149 6.91667 7.00033 6.91667C7.61916 6.91667 8.21266 6.67083 8.65024 6.23325C9.08783 5.79566 9.33366 5.20217 9.33366 4.58333C9.33366 3.96449 9.08783 3.371 8.65024 2.93342C8.21266 2.49583 7.61916 2.25 7.00033 2.25C6.38149 2.25 5.78799 2.49583 5.35041 2.93342C4.91282 3.371 4.66699 3.96449 4.66699 4.58333Z" stroke="#00A3FF" stroke-width="1.33" stroke-linecap="round" stroke-linejoin="round"/>
<path d="M3.5 12.75V11.5833C3.5 10.9645 3.74583 10.371 4.18342 9.93342C4.621 9.49583 5.21449 9.25 5.83333 9.25H8.16667C8.7855 9.25 9.379 9.49583 9.81658 9.93342C10.2542 10.371 10.5 10.9645 10.5 11.5833V12.75" stroke="#00A3FF" stroke-width="1.33" stroke-linecap="round" stroke-linejoin="round"/>
</g>
<defs>
<clipPath id="clip0_1017_24297">
<rect width="14" height="14" fill="white" transform="translate(0 0.5)"/>
</clipPath>
</defs>
</svg>
